PathFileType	4	(X/Y/Z)	52_1_29_p1_0-369.trc
DataRate	CameraRate	NumFrames	NumMarkers	Units	OrigDataRate	OrigDataStartFrame	OrigNumFrames
48.0	48.0	7	27	m	48.0	46	370
Frame#	Time	RHip			RKnee			RAnkle			RBigToe			RSmallToe			RHeel			LHip			LKnee			LAnkle			LBigToe			LSmallToe			LHeel			Neck			Head			Nose			RShoulder			RElbow			RWrist			RThumb			RIndex			RPinky			LShoulder			LElbow			LWrist			LThumb			LIndex			LPinky			
		X1	Y1	Z1	X2	Y2	Z2	X3	Y3	Z3	X4	Y4	Z4	X5	Y5	Z5	X6	Y6	Z6	X7	Y7	Z7	X8	Y8	Z8	X9	Y9	Z9	X10	Y10	Z10	X11	Y11	Z11	X12	Y12	Z12	X13	Y13	Z13	X14	Y14	Z14	X15	Y15	Z15	X16	Y16	Z16	X17	Y17	Z17	X18	Y18	Z18	X19	Y19	Z19	X20	Y20	Z20	X21	Y21	Z21	X22	Y22	Z22	X23	Y23	Z23	X24	Y24	Z24	X25	Y25	Z25	X26	Y26	Z26	X27	Y27	Z27	
46	0.9583333333333334	0.19260502967863644	0.5092820225071071	0.4675154386274321	0.11188912561576862	0.6251115522757404	0.9009375845091364	0.03127626515888246	0.759428274027517	1.2638367777336927	0.005082112236133036	0.6005041843094789	1.3010417596836679	0.06733237869973964	0.6038655303902047	1.31227606652419	5.1781118949021685e-05	0.8722246642722884	1.3253887965161901	-0.0077037873801962895	0.5083806549001543	0.4536852038661043	-0.0873960551207264	0.6741483416752629	0.8779981041029158	-0.16047603046933706	0.7840896873438461	1.2407916917683446	-0.14053930004216753	0.5993045043815409	1.2649205584301182	-0.20110204677169086	0.6399984961295618	1.261411325518199	-0.15363499755253543	0.8262375432372678	1.2896021154860913	0.21487336070066693	0.41917486878251076	-0.02910404690629834	0.2811017620559243	0.2979539718487378	-0.2510973851440245	0.2504703462718578	0.2727581644240574	-0.11693177379027718	0.33763264657363756	0.46533140353705527	0.056604846873040196	0.3845683741630653	0.6079575354284776	0.25839209254554496	0.36119613649407434	0.5641542024471872	0.41612769486610235	0.2880511726603368	0.4797308505927098	0.497013794741276	0.30174051315502665	0.48510518580684325	0.5164970334950463	0.32399528961797347	0.5687602865175792	0.5353968722499806	0.05009728655024976	0.3737472369699917	0.03261810651785746	-0.036979757948329306	0.42742098528296946	0.28034762957537057	-0.07189614084611734	0.43929032884212926	0.5445834672367807	-0.029569083460303854	0.4172595879001022	0.6528832702763603	-0.03512661733172874	0.40816866544808933	0.6673165779345106	-0.10537921408440835	0.47478942631665005	0.6589203912986716
47	0.9791666666666666	0.1927143461066045	0.5090854203976999	0.46729152911980265	0.11213913061441008	0.6229611523028578	0.8962958590845249	0.03141097716661367	0.7566328711544291	1.2586963355668581	0.007156105229279752	0.6103304847764397	1.3016477014997876	0.06739839697994768	0.601365308425316	1.3076014580787727	6.515615051786114e-05	0.8722427881501857	1.325049206567488	-0.007695932014436108	0.5081796701572439	0.45359390538457306	-0.08733824195287457	0.6740382117531234	0.8780972484936478	-0.16046965515844405	0.7841215205131306	1.2408424857092153	-0.14012701991161836	0.5963723197781502	1.2599508453977812	-0.20099315533113052	0.6398430754599582	1.2613174119813513	-0.153556438248911	0.8262772566042806	1.2895029699272795	0.21123855067400862	0.4313274316813462	-0.03448198857242677	0.281624618273288	0.2970920058710502	-0.2543617506477295	0.2545449281348909	0.2610287528908524	-0.11523184294153127	0.3314507564035396	0.4929563595120952	0.046608813222924	0.3832431179085575	0.6200826664331576	0.24081608635785234	0.3649648259227872	0.5617276695728397	0.3961530894249695	0.3111394601150467	0.4796680032824928	0.48220846847416715	0.31847099749511326	0.4698777777142705	0.4948120596228685	0.3351107589817119	0.5871711555707299	0.517669792036001	0.050044792300614066	0.37352966626278833	0.032676528465516115	-0.03634565959842316	0.42697692896132805	0.27670296352356394	-0.06815178082940214	0.4413226342900305	0.5454759627582522	-0.025697601331713414	0.4185854083582387	0.6539998855190591	-0.0349877041603081	0.4084046323139425	0.6673307757757262	-0.10546820281146232	0.47493203901160314	0.6589561023855804
48	1.0	0.19232211408398447	0.5090004537268094	0.46794163274571865	0.10830325102796265	0.6206580314866089	0.8949171396065334	0.03141221974679403	0.7564336924361447	1.2585775794590566	0.007182914958229495	0.6107501830067461	1.3019862760444714	0.06304768703269953	0.5985616374593239	1.3057630873966264	-0.002395488450823568	0.8561066012815857	1.3186934754747976	-0.008516132598583056	0.507810801401259	0.4581125933950943	-0.08726732409711499	0.6740504833934556	0.8780141881035777	-0.16000470734984965	0.7678874952898737	1.231032784987847	-0.14038580625993738	0.598651585351126	1.2649238278859074	-0.19919337995563452	0.6390641020907274	1.2576133154675397	-0.1537089309878506	0.8256453405653944	1.2894097647905236	0.20426102939005394	0.41575863382597616	-0.03834721010904118	0.2853128184482799	0.2982892513855799	-0.2538352744611978	0.2590163324069485	0.26059669132396995	-0.1179925067485938	0.3314153847579557	0.49257605720213277	0.046351748622492535	0.3848847941396811	0.6476126811725976	0.22775021547637447	0.3780168665541506	0.5601813159884194	0.394216211339595	0.31600882675815994	0.48080621726888434	0.4740390050009737	0.32398161356891925	0.49482504978017294	0.48019279330659875	0.3430517344543444	0.5982687176312769	0.4993535214577123	0.04676502550830417	0.36979856205762407	0.02831029538658931	-0.04427842381742142	0.442196711648688	0.2871493805471375	-0.06766921838474296	0.44101420406521735	0.5419299709186235	-0.026080033952841645	0.4203233420902813	0.6581041872634797	-0.035101456704596336	0.40825959603262235	0.6672798840460294	-0.10900506324364627	0.47889753108822275	0.6588550576795034
49	1.0208333333333333	0.19234831936865188	0.5088886554146643	0.4676528256965708	0.10817234506905758	0.6207362019960326	0.8949893246463102	0.037150618672768566	0.7386505198978701	1.2535905513794772	0.0052357412895430375	0.5982667346271378	1.2969599491894643	0.06291320099601759	0.5979222706260164	1.3055325774211397	1.7782619888239657e-05	0.872029883475417	1.325123213176379	-0.0037831901678543937	0.49410371206925274	0.45683976148525846	-0.08843596091106304	0.6749016787696284	0.8779972416005133	-0.15843070972157838	0.7835534695257875	1.2365307457227541	-0.14044969132341226	0.5988180940216344	1.2648710932204008	-0.19931941124487837	0.6393361532195149	1.2576600812426468	-0.1535110601978123	0.826688662695071	1.289592597406174	0.20009822925659165	0.41475067569166657	-0.038995908157601074	0.2821903699422328	0.287206212200989	-0.2527865703648648	0.2591210117011638	0.26077112282992737	-0.11796823938892667	0.32670494929632404	0.5060242611580896	0.04458290577438322	0.38592093931437016	0.678396584638906	0.22306065749931292	0.37754383952434917	0.5731908303276008	0.3788240917865982	0.3263463770566112	0.48044994407876424	0.4525805744532811	0.33543422282363805	0.49248409730499415	0.46552502248123667	0.3453460036978261	0.5958151519661204	0.4901687406468757	0.04678433084473056	0.3694604887149729	0.028286806013147245	-0.038291167722641455	0.42893098668111435	0.2838305383864938	-0.06753058180628005	0.44114184326304035	0.542114395622284	-0.02602902321708221	0.42044455111343654	0.6586434543903726	-0.03552428139783078	0.4080950039673187	0.6711840686757831	-0.10712475319563496	0.4620046843476431	0.6562533401296933
50	1.0416666666666667	0.1922573345565115	0.5091472208671183	0.4676586411144668	0.10818580522337104	0.6207730577291456	0.8949205298267592	0.0313632721722617	0.7562399370154663	1.2586659664090054	0.007199552791762828	0.6105700577534077	1.301935468678826	0.06298963267247516	0.5982396637268385	1.3056851065199968	-0.002590388067858047	0.8559618099321563	1.3192409476192628	-0.01062410529048536	0.49384569594027905	0.4563463912198449	-0.08738578163930202	0.6743498643499494	0.8781536614944356	-0.15848103776431896	0.7836542153378264	1.2365499793436034	-0.14045137545342998	0.598792978477325	1.2649376351037094	-0.1993679768269371	0.6393410696864817	1.257679821737472	-0.1537154029044564	0.8260273948093031	1.2895313474877834	0.20016768287849054	0.41442125756343584	-0.039088984822447215	0.28515214844106335	0.2982300670668701	-0.25384860752516575	0.25922538455871563	0.26080959012367394	-0.1180087067523405	0.3275628944278569	0.5060115724515386	0.041062215848662695	0.3867845179117386	0.6784016195000045	0.21960759923231882	0.37955758693676217	0.5714629101435126	0.3666109831163143	0.3306821579740658	0.5231916416986951	0.4403544509677968	0.343370857011305	0.5491201735919278	0.4605411983024823	0.3487638034064671	0.5949557638790092	0.47457110227312116	0.04625322219855852	0.37097770067571934	0.03213774071778005	-0.04087768969245934	0.41568231783149356	0.2867934434395834	-0.0643958811318166	0.4453791213694665	0.5475703495514626	-0.0260564977952721	0.41999770906222245	0.6594359449146492	-0.03537113316155184	0.40769420755224095	0.6714691603403604	-0.11015147751066118	0.44909748056729404	0.657381759850536
51	1.0625	0.1922685602381531	0.5096265835510965	0.46769109600112985	0.10580493714936304	0.6069852388307875	0.887460602261165	0.03514533104238535	0.7419984929851335	1.2625429094615332	0.005396460941549109	0.6009159557219909	1.3009050096271642	0.06298120636689691	0.6006207120966927	1.309985255529727	-0.0024301126172405485	0.856112822331942	1.318934434540826	-0.009806428393845566	0.5079172124357707	0.4614875681602537	-0.08749174461439929	0.6740494888614517	0.8779926027818341	-0.15878664310475865	0.7867162576523277	1.2422766490621382	-0.14134319350196975	0.5813252236168318	1.2543489604282798	-0.19924461681587977	0.6390612362218686	1.2575263326689863	-0.15335510454572993	0.8261027645013205	1.289202583187064	0.20432329344208275	0.40169495594559956	-0.03749923580952574	0.2847353239075552	0.29891579411795766	-0.25074324206654275	0.2620314242835206	0.2731324295423235	-0.11543240265632751	0.3242594835807696	0.5184980395126013	0.03576070177742744	0.39191982451799795	0.6597837367602093	0.21164285007786482	0.38566344966564153	0.5515439409960684	0.3502826199495558	0.3327060380950783	0.5198908246000375	0.4162381045403836	0.3434638723781815	0.560452210274016	0.433714594268521	0.350214263960536	0.5934420103093545	0.4663471579926568	0.04568173287545745	0.3726301329656773	0.0358219522964913	-0.04080917494255124	0.4151265761891087	0.2870189725018728	-0.06473046872717275	0.44513721629241765	0.5511579454849179	-0.026516817763640184	0.420564157210221	0.6628397254850136	-0.0352624116335945	0.40820164472163667	0.6712795346655661	-0.10872471802368909	0.4493949897130741	0.6537469656944542
52	1.0833333333333333	0.19261556120421747	0.5076054993869041	0.46365837687862776	0.10828917026393922	0.6207519427863839	0.8947594517796543	0.037006306523803635	0.7415966190332401	1.2586743670875553	0.005368468395699178	0.59775021557384	1.2966058059855017	0.06305779790934896	0.6001218497184323	1.3096551656381867	0.00012004294119121696	0.8722295593680377	1.3249914399151705	-0.004478228608218282	0.49421443697693207	0.4609783345319284	-0.08736930450429439	0.6740839676224342	0.8780393520986185	-0.15830437431528155	0.7833669293761333	1.2364367919670693	-0.1412875468822408	0.5811542617639687	1.2543121205436878	-0.1991384692171591	0.6388808753169527	1.2574367306964631	-0.1535585451631653	0.8257429175690717	1.289421320681981	0.20149671240681663	0.3885776522540822	-0.03733241767758681	0.28517020709455754	0.2983521207272483	-0.2537572240861302	0.2661744543067218	0.26136896293505696	-0.11362895159814794	0.3216966238037531	0.5057941858377201	0.03228478452721829	0.3883980165166436	0.6759772584072012	0.2105475662278384	0.3926978254938544	0.5480999343885535	0.3310587357042164	0.33841879607188147	0.526936876183411	0.4016857034586131	0.35220274637481214	0.570185846504507	0.4192171297675204	0.3607709076474863	0.588194612468334	0.4509651199472386	0.045752349506198844	0.37237247962087366	0.03590648627352598	-0.040766212176029784	0.41468778696661646	0.2870465958228282	-0.06455609232932237	0.4451343097750886	0.5511232948724399	-0.026287160596778995	0.420406256671443	0.662882850616695	-0.03511750951797721	0.40825481557681426	0.6714101566316006	-0.10317091942428672	0.46470739943660544	0.6578935816426963
